# xmcd
#
# Track frame offsets:
#	182
#	9665
#	22352
#	34760
#	54127
#	70240
#	77567
#	93470
#	106665
#	130557
#
# Disc length: 1924 seconds
#
# Revision: 1
# Processed by: cddbd v1.4PL0 Copyright (c) Steve Scherf et al.
# Submitted via: audiograbber 1.81.02
#
DISCID=7307820a
DTITLE=Various Artist - A Christmas Tradition Vol3
DYEAR=1900
DGENRE=Christmas
TTITLE0=Brenda Lee - Rockin' Around the Christmas Tree
TTITLE1=Kenny Rogers - I'll Be Home For Christmas
TTITLE2=Randy Travis - God Rest Ye Merry Gentlemen
TTITLE3=Texas Tornados - Rudolph The Red Nosed Reindeer 
TTITLE4=The A Strings with Kathy Mattea - The Christmas Song
TTITLE5=Sons of San Joaquin - Deck the Halls
TTITLE6=Don Edwards - White Christmas
TTITLE7=Holly Dunn - Feliz Navidad
TTITLE8=Travis Tritt - Silver Bells
TTITLE9=The Fairfield Four - Last Month of the Year
EXTD=
EXTT0=
EXTT1=
EXTT2=
EXTT3=
EXTT4=
EXTT5=
EXTT6=
EXTT7=
EXTT8=
EXTT9=
PLAYORDER=
